<svg id="visual" viewBox="0 0 450 900" width="450" height="900" xmlns="http://www.w3.org/2000/svg" xmlns:xlink="http://www.w3.org/1999/xlink" version="1.1"><path d="M100 0L98.3 16.7C96.7 33.3 93.3 66.7 94.7 100C96 133.3 102 166.7 100.8 200C99.7 233.3 91.3 266.7 89.5 300C87.7 333.3 92.3 366.7 89.5 400C86.7 433.3 76.3 466.7 74.7 500C73 533.3 80 566.7 84.7 600C89.3 633.3 91.7 666.7 92.8 700C94 733.3 94 766.7 95.8 800C97.7 833.3 101.3 866.7 103.2 883.3L105 900L0 900L0 883.3C0 866.7 0 833.3 0 800C0 766.7 0 733.3 0 700C0 666.7 0 633.3 0 600C0 566.7 0 533.3 0 500C0 466.7 0 433.3 0 400C0 366.7 0 333.3 0 300C0 266.7 0 233.3 0 200C0 166.7 0 133.3 0 100C0 66.7 0 33.3 0 16.7L0 0Z" fill="#01796f"></path><path d="M50 0L56.7 16.7C63.3 33.3 76.7 66.7 80.5 100C84.3 133.3 78.7 166.7 78.8 200C79 233.3 85 266.7 81.8 300C78.7 333.3 66.3 366.7 62.7 400C59 433.3 64 466.7 66.5 500C69 533.3 69 566.7 68.5 600C68 633.3 67 666.7 67.8 700C68.7 733.3 71.3 766.7 74.3 800C77.3 833.3 80.7 866.7 82.3 883.3L84 900L0 900L0 883.3C0 866.7 0 833.3 0 800C0 766.7 0 733.3 0 700C0 666.7 0 633.3 0 600C0 566.7 0 533.3 0 500C0 466.7 0 433.3 0 400C0 366.7 0 333.3 0 300C0 266.7 0 233.3 0 200C0 166.7 0 133.3 0 100C0 66.7 0 33.3 0 16.7L0 0Z" fill="#0f675a"></path><path d="M62 0L59.5 16.7C57 33.3 52 66.7 51.8 100C51.7 133.3 56.3 166.7 55.7 200C55 233.3 49 266.7 48.7 300C48.3 333.3 53.7 366.7 55.8 400C58 433.3 57 466.7 58.2 500C59.3 533.3 62.7 566.7 59.8 600C57 633.3 48 666.7 43.3 700C38.7 733.3 38.3 766.7 43.3 800C48.3 833.3 58.7 866.7 63.8 883.3L69 900L0 900L0 883.3C0 866.7 0 833.3 0 800C0 766.7 0 733.3 0 700C0 666.7 0 633.3 0 600C0 566.7 0 533.3 0 500C0 466.7 0 433.3 0 400C0 366.7 0 333.3 0 300C0 266.7 0 233.3 0 200C0 166.7 0 133.3 0 100C0 66.7 0 33.3 0 16.7L0 0Z" fill="#145646"></path><path d="M29 0L28.5 16.7C28 33.3 27 66.7 30.7 100C34.3 133.3 42.7 166.7 42.7 200C42.7 233.3 34.3 266.7 32.3 300C30.3 333.3 34.7 366.7 35.2 400C35.7 433.3 32.3 466.7 33.5 500C34.7 533.3 40.3 566.7 39.7 600C39 633.3 32 666.7 29.5 700C27 733.3 29 766.7 33.5 800C38 833.3 45 866.7 48.5 883.3L52 900L0 900L0 883.3C0 866.7 0 833.3 0 800C0 766.7 0 733.3 0 700C0 666.7 0 633.3 0 600C0 566.7 0 533.3 0 500C0 466.7 0 433.3 0 400C0 366.7 0 333.3 0 300C0 266.7 0 233.3 0 200C0 166.7 0 133.3 0 100C0 66.7 0 33.3 0 16.7L0 0Z" fill="#144534"></path><path d="M12 0L12.2 16.7C12.3 33.3 12.7 66.7 15.2 100C17.7 133.3 22.3 166.7 23.3 200C24.3 233.3 21.7 266.7 22.3 300C23 333.3 27 366.7 26.7 400C26.3 433.3 21.7 466.7 22.2 500C22.7 533.3 28.3 566.7 29.3 600C30.3 633.3 26.7 666.7 23.5 700C20.3 733.3 17.7 766.7 17.8 800C18 833.3 21 866.7 22.5 883.3L24 900L0 900L0 883.3C0 866.7 0 833.3 0 800C0 766.7 0 733.3 0 700C0 666.7 0 633.3 0 600C0 566.7 0 533.3 0 500C0 466.7 0 433.3 0 400C0 366.7 0 333.3 0 300C0 266.7 0 233.3 0 200C0 166.7 0 133.3 0 100C0 66.7 0 33.3 0 16.7L0 0Z" fill="#123524"></path></svg>