<svg xmlns="http://www.w3.org/2000/svg" xmlns:xlink="http://www.w3.org/1999/xlink" id="visual" width="450" height="900" version="1.1" viewBox="0 0 450 900"><path fill="#01796f" d="M352 900L353.7 883.3C355.3 866.7 358.7 833.3 357.3 800C356 766.7 350 733.3 351.2 700C352.3 666.7 360.7 633.3 362.5 600C364.3 566.7 359.7 533.3 362.5 500C365.3 466.7 375.7 433.3 377.3 400C379 366.7 372 333.3 367.3 300C362.7 266.7 360.3 233.3 359.2 200C358 166.7 358 133.3 356.2 100C354.3 66.7 350.7 33.3 348.8 16.7L347 0L450 0L450 16.7C450 33.3 450 66.7 450 100C450 133.3 450 166.7 450 200C450 233.3 450 266.7 450 300C450 333.3 450 366.7 450 400C450 433.3 450 466.7 450 500C450 533.3 450 566.7 450 600C450 633.3 450 666.7 450 700C450 733.3 450 766.7 450 800C450 833.3 450 866.7 450 883.3L450 900Z"/><path fill="#0f675a" d="M402 900L395.3 883.3C388.7 866.7 375.3 833.3 371.5 800C367.7 766.7 373.3 733.3 373.2 700C373 666.7 367 633.3 370.2 600C373.3 566.7 385.7 533.3 389.3 500C393 466.7 388 433.3 385.5 400C383 366.7 383 333.3 383.5 300C384 266.7 385 233.3 384.2 200C383.3 166.7 380.7 133.3 377.7 100C374.7 66.7 371.3 33.3 369.7 16.7L368 0L450 0L450 16.7C450 33.3 450 66.7 450 100C450 133.3 450 166.7 450 200C450 233.3 450 266.7 450 300C450 333.3 450 366.7 450 400C450 433.3 450 466.7 450 500C450 533.3 450 566.7 450 600C450 633.3 450 666.7 450 700C450 733.3 450 766.7 450 800C450 833.3 450 866.7 450 883.3L450 900Z"/><path fill="#145646" d="M390 900L392.5 883.3C395 866.7 400 833.3 400.2 800C400.3 766.7 395.7 733.3 396.3 700C397 666.7 403 633.3 403.3 600C403.7 566.7 398.3 533.3 396.2 500C394 466.7 395 433.3 393.8 400C392.7 366.7 389.3 333.3 392.2 300C395 266.7 404 233.3 408.7 200C413.3 166.7 413.7 133.3 408.7 100C403.7 66.7 393.3 33.3 388.2 16.7L383 0L450 0L450 16.7C450 33.3 450 66.7 450 100C450 133.3 450 166.7 450 200C450 233.3 450 266.7 450 300C450 333.3 450 366.7 450 400C450 433.3 450 466.7 450 500C450 533.3 450 566.7 450 600C450 633.3 450 666.7 450 700C450 733.3 450 766.7 450 800C450 833.3 450 866.7 450 883.3L450 900Z"/><path fill="#144534" d="M423 900L423.5 883.3C424 866.7 425 833.3 421.3 800C417.7 766.7 409.3 733.3 409.3 700C409.3 666.7 417.7 633.3 419.7 600C421.7 566.7 417.3 533.3 416.8 500C416.3 466.7 419.7 433.3 418.5 400C417.3 366.7 411.7 333.3 412.3 300C413 266.7 420 233.3 422.5 200C425 166.7 423 133.3 418.5 100C414 66.7 407 33.3 403.5 16.7L400 0L450 0L450 16.7C450 33.3 450 66.7 450 100C450 133.3 450 166.7 450 200C450 233.3 450 266.7 450 300C450 333.3 450 366.7 450 400C450 433.3 450 466.7 450 500C450 533.3 450 566.7 450 600C450 633.3 450 666.7 450 700C450 733.3 450 766.7 450 800C450 833.3 450 866.7 450 883.3L450 900Z"/><path fill="#123524" d="M440 900L439.8 883.3C439.7 866.7 439.3 833.3 436.8 800C434.3 766.7 429.7 733.3 428.7 700C427.7 666.7 430.3 633.3 429.7 600C429 566.7 425 533.3 425.3 500C425.7 466.7 430.3 433.3 429.8 400C429.3 366.7 423.7 333.3 422.7 300C421.7 266.7 425.3 233.3 428.5 200C431.7 166.7 434.3 133.3 434.2 100C434 66.7 431 33.3 429.5 16.7L428 0L450 0L450 16.7C450 33.3 450 66.7 450 100C450 133.3 450 166.7 450 200C450 233.3 450 266.7 450 300C450 333.3 450 366.7 450 400C450 433.3 450 466.7 450 500C450 533.3 450 566.7 450 600C450 633.3 450 666.7 450 700C450 733.3 450 766.7 450 800C450 833.3 450 866.7 450 883.3L450 900Z"/></svg>